<?xml version="1.0" encoding="UTF-8"?>
<svg xmlns="http://www.w3.org/2000/svg" viewBox="0 0 800 800">
  <defs>
    <linearGradient id="g1" x1="0%" y1="0%" x2="100%" y2="100%">
      <stop offset="0%" stop-color="#66d1b2"/>
      <stop offset="100%" stop-color="#3f63d3"/>
    </linearGradient>
  </defs>

  <!-- outer arc -->
  <path d="M220 280
           C120 380,120 560,300 640
           L500 640
           C680 560,680 380,580 280"
        fill="none" stroke="url(#g1)" stroke-width="12" stroke-linecap="round"/>

  <!-- head -->
  <circle cx="400" cy="360" r="28" fill="#5662d2"/>

  <!-- body -->
  <path d="M360 420
           C340 470,330 500,300 510
           C270 520,270 560,320 550
           C355 542,375 520,400 500
           C425 520,445 542,480 550
           C530 560,530 520,500 510
           C470 500,460 470,440 420
           Z"
        fill="#5662d2"/>

  <!-- legs -->
  <ellipse cx="330" cy="560" rx="70" ry="35" fill="#4564d3"/>
  <ellipse cx="470" cy="560" rx="70" ry="35" fill="#4564d3"/>

  <!-- petals -->
  <ellipse cx="400" cy="220" rx="40" ry="75" fill="#7fd38d"/>
  <ellipse cx="320" cy="270" rx="35" ry="65" transform="rotate(-35 320 270)" fill="#57c8ba"/>
  <ellipse cx="480" cy="270" rx="35" ry="65" transform="rotate(35 480 270)" fill="#57b4d8"/>
  <ellipse cx="290" cy="340" rx="30" ry="60" transform="rotate(-70 290 340)" fill="#b39be4"/>
  <ellipse cx="510" cy="340" rx="30" ry="60" transform="rotate(70 510 340)" fill="#b39be4"/>
</svg>
